<?xml version="1.0" encoding="UTF-8" standalone="no"?>
<svg
   xmlns:dc="http://purl.org/dc/elements/1.1/"
   xmlns:cc="http://creativecommons.org/ns#"
   xmlns:rdf="http://www.w3.org/1999/02/22-rdf-syntax-ns#"
   xmlns:svg="http://www.w3.org/2000/svg"
   xmlns="http://www.w3.org/2000/svg"
   xmlns:sodipodi="http://sodipodi.sourceforge.net/DTD/sodipodi-0.dtd"
   xmlns:inkscape="http://www.inkscape.org/namespaces/inkscape"
   width="210mm"
   height="297mm"
   viewBox="0 0 210 297"
   version="1.1"
   id="svg8"
   inkscape:version="1.0.2-2 (e86c870879, 2021-01-15)"
   sodipodi:docname="custom-recycle-sticker.svg">
  <defs
     id="defs2">
    <clipPath
       clipPathUnits="userSpaceOnUse"
       id="clipPath849">
      <path
         d="M 0,234 H 234 V 0 H 0 Z"
         id="path847" />
    </clipPath>
  </defs>
  <sodipodi:namedview
     id="base"
     pagecolor="#ffffff"
     bordercolor="#666666"
     borderopacity="1.0"
     inkscape:pageopacity="0.0"
     inkscape:pageshadow="2"
     inkscape:zoom="0.98994949"
     inkscape:cx="357.80205"
     inkscape:cy="553.42821"
     inkscape:document-units="mm"
     inkscape:current-layer="layer1"
     inkscape:document-rotation="0"
     showgrid="false"
     inkscape:window-width="1271"
     inkscape:window-height="1003"
     inkscape:window-x="50"
     inkscape:window-y="0"
     inkscape:window-maximized="0" />
  <metadata
     id="metadata5">
    <rdf:RDF>
      <cc:Work
         rdf:about="">
        <dc:format>image/svg+xml</dc:format>
        <dc:type
           rdf:resource="http://purl.org/dc/dcmitype/StillImage" />
        <dc:title></dc:title>
      </cc:Work>
    </rdf:RDF>
  </metadata>
  <g
     inkscape:label="Layer 1"
     inkscape:groupmode="layer"
     id="layer1">
    <rect
       style="fill:none;fill-opacity:1;stroke:#aeaeae;stroke-width:0.148329;stroke-linejoin:round;stroke-dasharray:0.296661, 0.29666100000000001"
       id="rect897"
       width="99.851669"
       height="99.851669"
       x="53.62236"
       y="126.86641"
       inkscape:export-xdpi="300"
       inkscape:export-ydpi="300" />
    <g
       id="g845"
       clip-path="url(#clipPath849)"
       transform="matrix(0.41666232,0,0,-0.41666232,54.798705,225.5417)"
       inkscape:export-xdpi="300"
       inkscape:export-ydpi="300">
      <g
         id="g851"
         transform="translate(116.8809,8.999)"
         style="fill:#008000">
        <path
           d="m 0,0 c -59.612,0.005 -107.554,48.115 -107.879,107.821 -0.31,57.215 45.423,108.12 107.909,108.181 C 60.309,216.061 108.339,168.129 108.118,107.61 107.9,45.98 58.044,-0.11 0,0"
           style="fill:#008000;fill-opacity:1;fill-rule:evenodd;stroke:none"
           id="path853" />
      </g>
      <g
         id="g855"
         transform="translate(138.6709,103.0107)">
        <path
           d="m 0,0 -17.112,-30.118 17.39,-29.808 -0.054,13.112 14.475,0.251 c 9.046,0.243 13.993,7.208 13.993,7.208 L 50.583,-1.886 C 55.265,8.648 50.248,15.792 50.248,15.792 L 35.033,41.839 4.937,24.429 24.275,-8.994 c 0.704,-1.765 -0.421,-3.192 -2.528,-3.161 L 0.102,-12.313 Z"
           style="fill:#ffffff;fill-opacity:1;fill-rule:nonzero;stroke:none"
           id="path857" />
      </g>
      <g
         id="g859"
         transform="translate(94.8486,107.5107)">
        <path
           d="M 0,0 -17.588,29.843 -52.099,29.612 -40.703,23.13 -47.695,10.454 C -51.992,2.487 -48.418,-5.27 -48.418,-5.27 l 21.584,-37.645 c 6.801,-9.312 15.492,-8.52 15.492,-8.52 l 30.166,0.214 -0.099,34.772 -38.619,-0.115 c -1.878,0.266 -2.553,1.957 -1.483,3.764 l 10.65,18.849 z"
           style="fill:#ffffff;fill-opacity:1;fill-rule:nonzero;stroke:none"
           id="path861" />
      </g>
      <g
         id="g863"
         transform="translate(120.6758,143.1807)">
        <path
           d="M 0,0 34.64,0.257 51.744,30.233 40.421,23.624 32.96,36.029 c -4.739,7.709 -13.243,8.704 -13.243,8.704 l -43.395,0.001 C -35.146,43.518 -38.816,35.601 -38.816,35.601 L -53.754,9.394 -23.621,-7.949 -4.357,25.519 c 1.172,1.492 2.974,1.228 3.998,-0.605 L 10.612,6.249 Z"
           style="fill:#ffffff;fill-opacity:1;fill-rule:nonzero;stroke:none"
           id="path865" />
      </g>
    </g>
  </g>
</svg>
