<?xml version="1.0" encoding="UTF-8" standalone="no"?>
<svg
   xmlns:dc="http://purl.org/dc/elements/1.1/"
   xmlns:cc="http://creativecommons.org/ns#"
   xmlns:rdf="http://www.w3.org/1999/02/22-rdf-syntax-ns#"
   xmlns:svg="http://www.w3.org/2000/svg"
   xmlns="http://www.w3.org/2000/svg"
   xmlns:sodipodi="http://sodipodi.sourceforge.net/DTD/sodipodi-0.dtd"
   xmlns:inkscape="http://www.inkscape.org/namespaces/inkscape"
   width="210mm"
   height="297mm"
   viewBox="0 0 210 297"
   version="1.1"
   id="svg905"
   inkscape:version="1.0.2-2 (e86c870879, 2021-01-15)"
   sodipodi:docname="custom-trash-sticker.svg">
  <defs
     id="defs899">
    <clipPath
       clipPathUnits="userSpaceOnUse"
       id="clipPath1484">
      <path
         d="M 0,234 H 234 V 0 H 0 Z"
         id="path1482" />
    </clipPath>
  </defs>
  <sodipodi:namedview
     id="base"
     pagecolor="#ffffff"
     bordercolor="#666666"
     borderopacity="1.0"
     inkscape:pageopacity="0.0"
     inkscape:pageshadow="2"
     inkscape:zoom="1.4"
     inkscape:cx="424.67447"
     inkscape:cy="538.11173"
     inkscape:document-units="mm"
     inkscape:current-layer="g1480"
     inkscape:document-rotation="0"
     showgrid="false"
     inkscape:window-width="1346"
     inkscape:window-height="1040"
     inkscape:window-x="156"
     inkscape:window-y="0"
     inkscape:window-maximized="0" />
  <metadata
     id="metadata902">
    <rdf:RDF>
      <cc:Work
         rdf:about="">
        <dc:format>image/svg+xml</dc:format>
        <dc:type
           rdf:resource="http://purl.org/dc/dcmitype/StillImage" />
        <dc:title></dc:title>
      </cc:Work>
    </rdf:RDF>
  </metadata>
  <g
     inkscape:label="Layer 1"
     inkscape:groupmode="layer"
     id="layer1">
    <rect
       style="fill:none;fill-opacity:1;stroke:#aeaeae;stroke-width:0.162277;stroke-linejoin:round;stroke-dasharray:0.324555, 0.324555"
       id="rect1522"
       width="99.837723"
       height="99.837723"
       x="56.645264"
       y="85.577896" />
    <g
       id="g1480"
       clip-path="url(#clipPath1484)"
       transform="matrix(0.41666798,0,0,-0.41666798,57.813974,184.24709)">
      <g
         id="g1486"
         transform="translate(116.8799,9.002)"
         style="fill:#4d4d4d">
        <path
           d="m 0,0 c -59.612,0.005 -107.553,48.113 -107.878,107.819 -0.31,57.212 45.423,108.116 107.909,108.178 C 60.31,216.055 108.339,168.124 108.119,107.608 107.897,45.979 58.046,-0.11 0,0"
           style="fill:#4d4d4d;fill-opacity:1;fill-rule:nonzero;stroke:none"
           id="path1488" />
      </g>
      <g
         id="g1490"
         transform="translate(106.041,187.252)">
        <path
           d="m 0,0 c 0,1.057 1.594,1.911 3.556,1.911 h 15.055 c 1.967,0 3.559,-0.854 3.559,-1.911 0,-0.923 0.326,-2.504 -0.903,-2.886 C 14.245,-2.881 7.098,-2.88 0.857,-2.879 -0.348,-2.486 0,-0.917 0,0 m 57.943,-3.76 c -0.419,0.609 -1.881,0.792 -2.871,0.807 -2.114,0.033 -15.185,0.052 -29.701,0.062 0.001,0.923 -0.05,1.844 -0.05,2.577 0,2.381 -2.047,4.311 -4.568,4.311 H 1.421 c -2.523,0 -4.57,-1.93 -4.57,-4.311 0,-0.731 -0.056,-1.645 -0.059,-2.565 -8.513,0.003 -14.561,-10e-4 -14.854,-0.005 -5.037,-0.07 -10.078,0.029 -15.118,-0.081 -1.056,-0.024 -2.578,-0.374 -3.065,-1.078 -3.055,-4.416 -2.296,-3.707 -5.466,-8.646 h 105.58 c -3.243,5.044 -2.822,4.415 -5.926,8.929"
           style="fill:#ffffff;fill-opacity:1;fill-rule:nonzero;stroke:none"
           id="path1492" />
      </g>
      <g
         id="g1494"
         transform="translate(154.9883,151.8657)">
        <path
           d="m 0,0 c -1.73,-31.167 -3.292,-59.453 -5.066,-90.578 -0.073,-1.263 -0.322,-2.868 -1.059,-3.632 -0.595,-0.611 -2.287,-0.605 -3.06,-0.092 -0.706,0.473 -1.202,2.005 -1.159,3.053 0.299,7.464 0.765,14.924 1.183,22.389 0.444,8.03 0.89,16.06 1.337,24.091 0.844,15.15 1.69,30.302 2.516,45.456 0.105,1.916 0.237,3.775 2.506,3.878 1.731,0.079 3.039,-0.54 2.885,-2.87 C 0.049,1.132 0.028,0.565 0,0 m -17.678,0.062 c -0.867,-31.199 -1.642,-59.513 -2.548,-90.668 -0.04,-1.265 -0.244,-2.879 -0.962,-3.662 -0.574,-0.623 -2.268,-0.658 -3.054,-0.166 -0.717,0.457 -1.255,1.976 -1.243,3.023 0.094,7.469 0.352,14.942 0.559,22.413 0.225,8.038 0.446,16.073 0.671,24.111 0.421,15.17 0.847,30.337 1.254,45.508 0.05,1.916 0.131,3.777 2.396,3.937 1.73,0.12 3.052,-0.467 2.965,-2.797 -0.02,-0.565 -0.023,-1.133 -0.038,-1.699 m -17.681,-90.64 c -10e-4,-1.265 -0.163,-2.88 -0.857,-3.68 -0.555,-0.637 -2.25,-0.717 -3.05,-0.244 -0.733,0.437 -1.312,1.943 -1.326,2.992 -0.113,7.469 -0.064,14.946 -0.064,22.42 v 24.119 c 0,15.174 0.01,30.347 -0.006,45.523 -0.002,1.917 0.025,3.78 2.286,3.992 1.726,0.166 3.063,-0.388 3.042,-2.721 -0.004,-0.565 0.009,-1.132 0.009,-1.698 0,-31.209 0.009,-59.533 -0.034,-90.703 m -15.906,-3.609 c -0.536,-0.651 -2.227,-0.773 -3.037,-0.317 -0.747,0.421 -1.368,1.911 -1.415,2.955 -0.316,7.464 -0.475,14.94 -0.68,22.412 -0.224,8.039 -0.447,16.073 -0.671,24.112 -0.419,15.168 -0.83,30.336 -1.272,45.506 -0.056,1.916 -0.078,3.779 2.176,4.05 1.722,0.206 3.074,-0.316 3.117,-2.646 0.012,-0.565 0.04,-1.132 0.058,-1.698 0.866,-31.199 1.661,-59.512 2.483,-90.673 0.03,-1.264 -0.082,-2.882 -0.759,-3.701 m -15.064,0.139 c -0.518,-0.665 -2.206,-0.83 -3.029,-0.392 -0.758,0.398 -1.417,1.875 -1.494,2.922 -0.523,7.453 -0.886,14.92 -1.303,22.384 -0.449,8.029 -0.894,16.057 -1.341,24.086 -0.839,15.152 -1.672,30.308 -2.532,45.46 -0.109,1.912 -0.186,3.775 2.063,4.102 1.713,0.247 3.082,-0.238 3.188,-2.572 0.028,-0.562 0.071,-1.125 0.103,-1.692 1.729,-31.167 3.313,-59.45 4.999,-90.581 0.069,-1.263 -0.003,-2.883 -0.654,-3.717 m 82.326,92.179 c 0,2.035 0.261,3.684 -2.187,3.684 H 8.523 c 0.259,6.556 0.422,11.885 0.455,15.636 -31.326,0 -62.788,0.003 -93.93,0.003 0.027,-3.728 0.182,-9.066 0.434,-15.639 h -5.273 c -2.483,0 -2.186,-1.649 -2.186,-3.684 0,-2.033 -0.254,-3.68 2.186,-3.68 h 5.571 c 1.062,-24.888 3.1,-62.507 4.945,-99.784 0,-3.699 30.344,-3.783 41.171,-3.783 10.824,0 41.084,-0.039 41.062,3.866 2.029,37.628 4.148,74.96 5.251,99.701 h 5.601 c 2.51,0 2.187,1.647 2.187,3.68"
           style="fill:#ffffff;fill-opacity:1;fill-rule:nonzero;stroke:none"
           id="path1496" />
      </g>
    </g>
  </g>
</svg>
